<?xml version="1.0" encoding="UTF-8"?>
<!-- Generator: visioncortex VTracer 0.6.3 -->
<svg version="1.1" xmlns="http://www.w3.org/2000/svg" width="512" height="512">
<path d="M0 0 C1.02 0 2.04 0 3.08 0.01 C17.69 0.06 32.03 0.31 46.38 3.31 C47.35 3.51 48.32 3.71 49.33 3.91 C97.71 14.04 141.7 35.95 177.38 70.31 C178.36 71.26 178.36 71.26 179.37 72.23 C188.86 81.37 197.6 90.67 205.38 101.31 C206.23 102.46 207.09 103.61 207.95 104.77 C213.99 112.96 219.35 121.47 224.38 130.31 C224.74 130.94 225.1 131.58 225.48 132.23 C247.09 169.98 256.85 212.74 256.69 255.94 C256.69 256.96 256.68 257.97 256.68 259.02 C256.63 273.63 256.38 287.96 253.38 302.31 C253.08 303.77 253.08 303.77 252.77 305.27 C242.65 353.65 220.74 397.64 186.38 433.31 C185.74 433.97 185.11 434.63 184.46 435.31 C175.32 444.8 166.02 453.54 155.38 461.31 C154.22 462.17 153.07 463.03 151.92 463.89 C143.73 469.92 135.23 475.31 126.38 480.31 C125.67 480.71 124.96 481.12 124.23 481.53 C101.1 494.56 75.93 503.31 49.94 508.62 C49.22 508.77 48.5 508.92 47.76 509.07 C33.08 511.86 18.56 512.66 3.65 512.63 C0.71 512.63 -2.23 512.65 -5.17 512.67 C-18.54 512.72 -31.44 511.51 -44.62 509.31 C-46.33 509.03 -46.33 509.03 -48.07 508.74 C-91.34 500.97 -132.39 480.98 -165.62 452.31 C-166.37 451.68 -167.12 451.04 -167.88 450.39 C-181.39 438.58 -194.06 425.83 -204.62 411.31 C-205.48 410.16 -206.34 409.01 -207.2 407.86 C-213.24 399.67 -218.62 391.17 -223.62 382.31 C-224.03 381.61 -224.43 380.9 -224.84 380.17 C-237.87 357.03 -246.62 331.86 -251.94 305.88 C-252.08 305.16 -252.23 304.44 -252.38 303.7 C-255.36 288.05 -256 272.58 -255.94 256.69 C-255.94 255.67 -255.93 254.65 -255.93 253.6 C-255.88 238.99 -255.63 224.66 -252.62 210.31 C-252.43 209.34 -252.23 208.36 -252.02 207.36 C-241.9 158.98 -219.99 114.99 -185.62 79.31 C-184.99 78.65 -184.36 77.99 -183.71 77.31 C-174.57 67.83 -165.27 59.09 -154.62 51.31 C-153.47 50.45 -152.32 49.6 -151.17 48.74 C-142.98 42.7 -134.48 37.32 -125.62 32.31 C-124.92 31.91 -124.21 31.51 -123.48 31.09 C-100.35 18.07 -75.18 9.32 -49.19 4 C-48.47 3.85 -47.75 3.71 -47.01 3.55 C-31.36 0.58 -15.89 -0.06 0 0 Z " fill="#00BA00" transform="translate(255.625,-0.3125)"/>
<path d="M0 0 C8.07 4.77 13.61 10.77 17.31 19.44 C19.54 28.17 19.3 38.26 15.31 46.44 C11.36 52.44 6.55 57.48 1.44 62.5 C0.77 63.17 0.1 63.84 -0.59 64.53 C-4.5 68.4 -8.53 72.09 -12.7 75.69 C-16.11 78.68 -19.39 81.81 -22.69 84.94 C-24.18 86.35 -25.68 87.77 -27.18 89.18 C-27.93 89.89 -28.68 90.6 -29.46 91.33 C-32.9 94.58 -36.36 97.82 -39.81 101.06 C-40.47 101.68 -41.13 102.29 -41.8 102.93 C-49.37 110.02 -56.96 117.09 -64.54 124.17 C-71.6 130.75 -78.65 137.34 -85.69 143.94 C-92.72 150.54 -99.77 157.12 -106.83 163.7 C-109.95 166.61 -113.07 169.53 -116.19 172.44 C-119.93 175.93 -123.66 179.42 -127.4 182.9 C-128.64 184.06 -129.88 185.22 -131.12 186.38 C-131.74 186.95 -132.35 187.52 -132.98 188.11 C-136.27 191.18 -139.56 194.25 -142.84 197.34 C-149.2 203.31 -155.57 209.27 -162.08 215.08 C-166.08 218.7 -170.01 222.39 -173.95 226.08 C-178.49 230.32 -183.04 234.54 -187.61 238.74 C-190.81 241.68 -193.98 244.65 -197.14 247.64 C-197.9 248.36 -198.67 249.08 -199.45 249.83 C-200.96 251.25 -202.45 252.67 -203.95 254.1 C-204.64 254.75 -205.33 255.4 -206.04 256.07 C-206.64 256.64 -207.25 257.22 -207.88 257.82 C-209.74 259.48 -211.67 260.97 -213.69 262.44 C-218.32 257.91 -222.75 253.29 -226.97 248.37 C-229.19 245.87 -231.56 243.56 -233.94 241.22 C-236.39 238.72 -238.65 236.06 -240.94 233.41 C-242.63 231.51 -244.38 229.72 -246.19 227.94 C-249.28 224.9 -252.11 221.69 -254.94 218.41 C-256.63 216.51 -258.38 214.72 -260.19 212.94 C-262.62 210.55 -264.9 208.09 -267.12 205.5 C-269.54 202.69 -272.05 200.04 -274.69 197.44 C-277.96 194.22 -280.98 190.85 -283.97 187.37 C-286.19 184.87 -288.56 182.56 -290.94 180.22 C-293.39 177.72 -295.65 175.06 -297.94 172.41 C-299.63 170.51 -301.38 168.72 -303.19 166.94 C-306.28 163.9 -309.11 160.69 -311.94 157.41 C-313.63 155.51 -315.38 153.72 -317.19 151.94 C-320.24 148.93 -323.08 145.79 -325.86 142.53 C-327.12 141.09 -328.41 139.67 -329.73 138.28 C-337.98 129.49 -342.17 120.81 -342.02 108.73 C-341.04 99.13 -336.08 90.55 -328.69 84.44 C-319.13 78.69 -310.74 75.74 -299.61 78.09 C-287.18 81.81 -279.84 90.18 -271.42 99.54 C-268.26 103.01 -265.03 106.4 -261.81 109.81 C-254.99 117.05 -248.19 124.32 -241.41 131.59 C-239.67 133.46 -237.93 135.32 -236.2 137.18 C-235.62 137.8 -235.04 138.42 -234.44 139.06 C-233.28 140.3 -232.12 141.54 -230.96 142.78 C-227.89 146.07 -224.82 149.37 -221.77 152.68 C-220.8 153.72 -220.8 153.72 -219.82 154.78 C-218.59 156.11 -217.36 157.44 -216.13 158.78 C-213.24 162.03 -213.24 162.03 -209.69 164.44 C-205.73 161.06 -201.84 157.65 -198.19 153.94 C-195.8 151.5 -193.34 149.22 -190.75 147 C-187.94 144.58 -185.29 142.08 -182.69 139.44 C-179.47 136.17 -176.1 133.14 -172.62 130.15 C-170.12 127.94 -167.81 125.57 -165.47 123.19 C-162.97 120.73 -160.31 118.47 -157.66 116.19 C-155.76 114.5 -153.97 112.75 -152.19 110.94 C-149.15 107.84 -145.94 105.02 -142.66 102.19 C-140.76 100.5 -138.97 98.75 -137.19 96.94 C-134.8 94.5 -132.34 92.22 -129.75 90 C-126.94 87.58 -124.29 85.08 -121.69 82.44 C-118.47 79.17 -115.1 76.14 -111.62 73.15 C-109.73 71.48 -107.96 69.74 -106.19 67.94 C-103.23 64.94 -100.14 62.17 -96.96 59.42 C-88.02 51.61 -79.42 43.39 -70.77 35.27 C-68.13 32.79 -65.5 30.32 -62.86 27.86 C-61.93 26.99 -61.93 26.99 -60.98 26.11 C-59.75 24.96 -58.51 23.8 -57.27 22.66 C-54.08 19.7 -50.93 16.71 -47.84 13.66 C-34.32 0.45 -18.93 -8.81 0 0 Z " fill="#FDFEFD" transform="translate(414.6875,145.5625)"/>
</svg>
