<svg version="1.0" xmlns="http://www.w3.org/2000/svg" width="28.000000pt" height="18.000000pt" viewBox="0 0 28.000000 18.000000" preserveAspectRatio="xMidYMid meet" fill="#43B7D7"> <g transform="translate(0.000000,18.000000) scale(0.100000,-0.100000)" stroke="none"> <path d="M39 166 c-44 -22 -35 -106 12 -106 30 0 22 -20 -11 -27 -33 -6 -46
 -18 -31 -28 16 -9 77 21 95 46 19 28 21 92 4 106 -24 18 -45 21 -69 9z"></path> <path d="M188 166 c-43 -22 -33 -106 13 -106 30 0 22 -20 -11 -27 -33 -6 -46
 -18 -31 -28 14 -8 73 18 92 41 55 64 7 155 -63 120z"></path> </g> </svg>