<svg width="23" height="23" viewBox="0 0 23 23" fill="none" xmlns="http://www.w3.org/2000/svg">
<path d="M17.0527 4.11548C16.3748 4.11548 15.7586 4.67009 15.7586 5.40957C15.7586 6.08743 16.3132 6.70368 17.0527 6.70368C17.7305 6.70368 18.3468 6.14906 18.3468 5.40957C18.3468 4.73171 17.7305 4.11548 17.0527 4.11548Z" fill="white"/>
<path d="M11.3833 5.7793C8.42536 5.7793 6.02203 8.18262 6.02203 11.1406C6.02203 14.0985 8.42536 16.5018 11.3833 16.5018C14.3412 16.5018 16.7446 14.0985 16.7446 11.1406C16.7446 8.18262 14.3412 5.7793 11.3833 5.7793ZM11.3833 14.5915C9.47297 14.5915 7.93239 13.0509 7.93239 11.1406C7.93239 9.23022 9.47297 7.68963 11.3833 7.68963C13.2936 7.68963 14.8342 9.23022 14.8342 11.1406C14.8342 13.0509 13.2936 14.5915 11.3833 14.5915Z" fill="white"/>
<path d="M15.6353 22.0481H6.94634C3.31054 22.0481 0.414246 19.0901 0.414246 15.516V6.82703C0.414246 3.19123 3.37217 0.294922 6.94634 0.294922H15.6353C19.2711 0.294922 22.1674 3.25286 22.1674 6.82703V15.516C22.1674 19.0901 19.2095 22.0481 15.6353 22.0481ZM6.94634 2.3285C4.48139 2.3285 2.44782 4.36208 2.44782 6.82703V15.516C2.44782 17.9809 4.48139 20.0145 6.94634 20.0145H15.6353C18.1002 20.0145 20.1338 17.9809 20.1338 15.516V6.82703C20.1338 4.36208 18.1002 2.3285 15.6353 2.3285H6.94634Z" fill="white"/>
</svg>
